<svg width="214" height="194" viewBox="0 0 214 194" xmlns="http://www.w3.org/2000/svg"><title/><g stroke="#000" stroke-width="10" fill="none" fill-rule="evenodd" stroke-linecap="round" stroke-linejoin="round"><path d="M174.316 43.578c-9.882 3.033-20.075 5.196-29.648 9.098-11.858 4.833-23.387 10.554-34.438 17.023-9.399 5.503-22.443 14.658-22.48 27.817-.005 1.599 2.704-1.993 4.297-2.133 3.75-.33 7.617 1.681 11.27.765 3.469-.87 5.79-4.26 8.996-5.847 22.719-11.243 47.08-14.834 68.277-29.7 1.424-.998.687-3.62 0-5.218-1.413-3.286-4.037-5.906-6.055-8.86l-.219-2.945zM154.59 43.48c7.586 13.04 3.645 5.008 10.172 24.836M27.86 96.207l-4.16.27M38.34 107.133l-9.55 5.324M52.645 117.578l-4.72 5.836M58.875 142.348l-8.36 5.07M71.328 156.246v3.922M88.754 27.496V19.34M59.816 37.523l-2.843-8.507M31.8 44.773H18.407"/><path d="M40.816 74.945c26.099-1.845 44.032-14.332 66.868-22.672.897-.327.104 2.062.75 2.766 3.005 3.273 6.876 5.662 9.941 8.879 11.057 11.604 15.405 27.442 26.758 38.617 4.981 4.903 17.723 11.065 19.68 19.125.473 1.949-4.044-.365-6.016 0-2.619.485-5.172 1.387-7.582 2.52-9.304 4.373-18.039 9.938-27.496 13.968-8.141 3.47-16.89 5.32-25.16 8.47-1.477.562-2.696 3.573-3.954 2.616-2.866-2.181-2.959-6.634-5.117-9.52-5.797-7.75-12.813-14.532-18.648-22.253-5.333-7.057-8.965-15.38-14.809-22.02-4.91-5.58-12.513-8.453-17.133-14.277-16.677-21.024-.323-12.401-8.164-16.312M111.328 158.121v13.82M141.223 153.71l6.945 1.786M170.344 141.492l11.054 4.274M181.398 108.414h13.199M171.523 89.973l7.399-.82M118.945 32.488V13.121"/></g></svg>