<svg width="440" height="287" viewBox="0 0 440 287" xmlns="http://www.w3.org/2000/svg"><title>Artboard</title><g stroke="#000" stroke-width="20" fill="none" fill-rule="evenodd" stroke-linecap="round"><path d="M63 179l137-14M280.451 76.802c4.475-6.272 21.333-31.454 27.199-23.133 12.154 17.24 20.188 101.576 25.602 126.346 3.182 14.56 21.456 30.731 12.773 42.851-10.394 14.508-34.708 8.464-52.182 12.157-4.408.931-9.001 2.643-13.407 1.704-1.796-.382 2.436-2.885 4.085-3.69 6.34-3.094 12.976-5.568 19.638-7.888 13.039-4.54 26.108-9.058 39.432-12.681 9.252-2.516 18.66-4.675 28.192-5.707 8.132-.88 16.388.694 24.538 0 5.661-.482 11.12-2.34 16.679-3.51M87 93c4.518 56.196 7.82 85.59 27 138M133 75c19.698 83.006 9.34 36.419 30 140M47 162c150.31-66.805 90.875-47.574 173-72"/></g></svg>