<svg width="440" height="287" viewBox="0 0 440 287" xmlns="http://www.w3.org/2000/svg"><title>Artboard</title><g stroke="#000" stroke-width="10" fill="none" fill-rule="evenodd" stroke-linecap="round"><path d="M62.68 115.318c0 23.772-1.53 47.596 0 71.317.448 6.959 1.278 14.898 5.888 20.034 3.365 3.748 9.697 2.496 14.658 2.855 8.226.596 16.605 1.38 24.74 0 23.253-3.946 46.104-10.104 68.982-15.905.899-.228 1.87-1.123 1.903-2.07.61-16.838 1.03-33.732 0-50.549-4.55-74.338-73.734-43.723-111.359-29.812l-4.812 4.13z"/><path d="M102.278 76.728c-29.67 87.252 17.39-47.678-24.94 59.522-3.151 7.979-11.684 31.922-6.926 24.826 12.117-18.068 18.567-39.551 29.454-58.42 5.1-8.838 18.001-26.711 29.414-32.31 5.006-2.455 14.197-9.89 16.053-4.537 3.73 10.763-1.492 23.242-5.939 33.717-11.258 26.516-25.767 51.535-40.683 76.089-6.935 11.413-11.53 32.057-24.652 31.453-10.837-.5 4.823-21.683 8.27-32.208 13.337-40.717 34.176-79.898 58.62-114.659 1.458-2.073 3.418-3.913 5.679-4.995 3.061-1.465 7.277-4.673 9.855-2.437 2.87 2.49 1.208 7.728.627 11.531-9.921 64.97-17.211 88.668-55.779 143.237-6.616 9.361-27.485 35.256-24.263 24.183 6.4-21.994 23.595-39.055 34.436-59.144 9.24-17.12 16.917-35.08 25.768-52.415 10.898-21.346 11.69-17.179 10.79 9.808-.462 13.904.098 28.04-2.77 41.639-2.74 12.999-9.804 24.654-13.87 37.285-.914 2.841 2.516-5.47 4.375-7.78 16.02-19.901 32.184-39.705 49.173-58.746.617-.691 2.65-.293 2.67.642.696 32.81-3.345 30.837-18.134 63.335M314.932 72.71c-17.686 6.346-44.969 25.58-47.03 47.358-2.805 29.626-1.384 75.187 39.218 67.524 17.336-3.271 45.99-12.992 55.77-28.792 28.873-46.647 15.782-91.8-45.307-91.8l-2.65 5.71z"/></g></svg>