<svg width="440" height="325" viewBox="0 0 440 325" xmlns="http://www.w3.org/2000/svg"><title>Artboard</title><g stroke="#000" stroke-width="10" fill="none" fill-rule="evenodd" stroke-linecap="round"><path d="M75.754 19.224C70.87 38.794 57.321 58.12 61.1 77.932c1.761 9.234 18.063 5.27 27.243 7.3 23.297 5.15 46.643 10.147 70.15 14.235 8.311 1.445 17.035.218 25.198 2.343l4.165-1.9c18.206 4.738 35.373 13.295 53.819 16.992 4.662.934 10.107-.493 13.844-3.432 5.452-4.288.507-20.976.492-23.93-.016-3.167 2.894-6.292 1.919-9.305-.088-.272-13.823-28.497-18.953-30.087-24.502-7.596-49.556-13.326-74.555-19.08-25.255-5.812-52.014-10.487-78.065-9.723l-10.602-2.12zM53.623 115.795c-7.533 28.114-15.604 56.087-22.6 84.342-7.162 28.932-2.773 27.582 30.816 31.695 9.957 1.22 19.954 1.968 29.919 2.351 18.261.703 36.432-.599 54.708.904 11.331.932 22.432 6.595 33.696 6.366 3.019-.06 2.423-4.63 3.135-7.113 5.457-19.012 10.708-38.088 15.358-57.315.92-3.808 1.422-7.753 1.335-11.715-.141-6.492 4.629-15.95-2.017-19.519-17.824-9.57-116.506-29.08-137.232-33.469l-7.118 3.473zM168.71 37.637L158.446 74.17" stroke-linejoin="round"/><path stroke-linejoin="round" d="M142.724 50.797l9.448 2.532 6.27 1.68 6.808 1.824 8.044 2.155 2.166.58 10.248 2.747 1.23.33 1.735.464.483.13"/><path d="M304.092 65.234c-19.11 71.32-66.076 139.302-57.33 213.96 2.92 24.926 56.232 10.241 84.255 15.904 10.331 2.087 20.327 7.02 30.774 7.34 2.882.088 3.635-3.866 4.363-6.264 6.941-22.87 10.25-46.81 18.554-69.245 6.968-18.826 18.98-35.66 27.084-54.067 2.597-5.897-4.466-28.676-4.499-31.762-.301-28.124 14.617-36.65-20.463-50.097-22.994-8.815-47.528-13.264-71.293-19.896l-11.445-5.873z"/></g></svg>